<?xml version="1.0" encoding="iso-8859-1"?>
<!-- Generator: Adobe Illustrator 19.0.0, SVG Export Plug-In . SVG Version: 6.00 Build 0)  -->
<svg version="1.1" id="Capa_1" xmlns="http://www.w3.org/2000/svg" xmlns:xlink="http://www.w3.org/1999/xlink" x="0px" y="0px"
	 viewBox="0 0 539.077 539.077" style="enable-background:new 0 0 539.077 539.077;" xml:space="preserve">
<g>
	<g>
		<path d="M269.538,426.769c-80.502,0-146-65.498-146-146V146c0-80.502,65.498-146,146-146s146,65.498,146,146v134.769
			C415.538,361.271,350.04,426.769,269.538,426.769z M269.538,22.462C201.419,22.462,146,77.881,146,146v134.769
			c0,68.108,55.419,123.538,123.538,123.538c68.108,0,123.538-55.43,123.538-123.538V146
			C393.077,77.881,337.647,22.462,269.538,22.462z"/>
		<path d="M269.538,539.077c-6.208,0-11.231-5.023-11.231-11.231v-56.461c-101.636-5.637-179.692-87.324-179.692-190.616v-44.923
			c0-6.208,5.023-11.231,11.231-11.231s11.231,5.023,11.231,11.231v44.923c0,94.474,73.998,168.462,168.462,168.462
			c94.474,0,168.462-73.987,168.462-168.462v-44.923c0-6.208,5.023-11.231,11.231-11.231s11.231,5.023,11.231,11.231v44.923
			c0,103.292-78.045,184.979-179.692,190.616v56.461C280.769,534.054,275.746,539.077,269.538,539.077z M314.462,89.846
			L314.462,89.846c-6.208,0-11.231-5.034-11.231-11.231l0.022-59.707c0-6.208,5.023-11.231,11.231-11.231l0,0
			c6.208,0,11.231,5.034,11.231,11.231l-0.022,59.707C325.692,84.823,320.669,89.846,314.462,89.846z M269.538,89.846
			c-6.208,0-11.231-5.023-11.231-11.231V11.231C258.308,5.023,263.331,0,269.538,0c6.208,0,11.231,5.023,11.231,11.231v67.385
			C280.769,84.823,275.746,89.846,269.538,89.846z M224.615,89.846c-6.208,0-11.231-5.023-11.231-11.231V18.908
			c0-6.208,5.023-11.231,11.231-11.231c6.208,0,11.231,5.023,11.231,11.231v59.707C235.846,84.823,230.823,89.846,224.615,89.846z"
			/>
		<rect x="89.846" y="269.538" width="359.385" height="22.462"/>
		<path d="M404.308,247.077h-89.846c-6.208,0-11.231-5.023-11.231-11.231c0-6.208,5.023-11.231,11.231-11.231h89.846
			c6.208,0,11.231,5.023,11.231,11.231C415.538,242.054,410.515,247.077,404.308,247.077z M224.615,247.077h-89.846
			c-6.208,0-11.231-5.023-11.231-11.231c0-6.208,5.023-11.231,11.231-11.231h89.846c6.208,0,11.231,5.023,11.231,11.231
			C235.846,242.054,230.823,247.077,224.615,247.077z M404.308,202.154h-89.846c-6.208,0-11.231-5.023-11.231-11.231
			c0-6.208,5.023-11.231,11.231-11.231h89.846c6.208,0,11.231,5.023,11.231,11.231C415.538,197.131,410.515,202.154,404.308,202.154
			z M224.615,202.154h-89.846c-6.208,0-11.231-5.023-11.231-11.231c0-6.208,5.023-11.231,11.231-11.231h89.846
			c6.208,0,11.231,5.023,11.231,11.231C235.846,197.131,230.823,202.154,224.615,202.154z M404.308,157.231h-89.846
			c-6.208,0-11.231-5.023-11.231-11.231s5.023-11.231,11.231-11.231h89.846c6.208,0,11.231,5.023,11.231,11.231
			S410.515,157.231,404.308,157.231z M224.615,157.231h-89.846c-6.208,0-11.231-5.023-11.231-11.231s5.023-11.231,11.231-11.231
			h89.846c6.208,0,11.231,5.023,11.231,11.231S230.823,157.231,224.615,157.231z"/>
	</g>
</g>
<g>
</g>
<g>
</g>
<g>
</g>
<g>
</g>
<g>
</g>
<g>
</g>
<g>
</g>
<g>
</g>
<g>
</g>
<g>
</g>
<g>
</g>
<g>
</g>
<g>
</g>
<g>
</g>
<g>
</g>
</svg>
