<?xml version="1.0" encoding="utf-8"?>
<!-- Generator: Adobe Illustrator 16.0.0, SVG Export Plug-In . SVG Version: 6.00 Build 0)  -->
<!DOCTYPE svg PUBLIC "-//W3C//DTD SVG 1.1//EN" "http://www.w3.org/Graphics/SVG/1.1/DTD/svg11.dtd">
<svg version="1.1" id="Layer_1" xmlns="http://www.w3.org/2000/svg" xmlns:xlink="http://www.w3.org/1999/xlink" x="0px" y="0px"
	 width="79.444px" height="64.113px" viewBox="0 0 79.444 64.113" enable-background="new 0 0 79.444 64.113" xml:space="preserve">
<g>
	<path fill="#FFFFFF" d="M78.694,18.665H63.913c-1.728,0-3.134-1.406-3.134-3.134V0.75c0-0.304,0.183-0.577,0.463-0.693
		c0.28-0.114,0.603-0.051,0.817,0.163l17.164,17.165c0.215,0.215,0.279,0.537,0.163,0.817S78.997,18.665,78.694,18.665z
		 M62.279,2.561v12.971c0,0.9,0.733,1.634,1.634,1.634h12.971L62.279,2.561z"/>
	<path fill="#FFFFFF" d="M78.694,18.665H63.913c-1.728,0-3.134-1.406-3.134-3.134V0.75c0-0.304,0.183-0.577,0.463-0.693
		c0.28-0.114,0.603-0.051,0.817,0.163l17.164,17.165c0.215,0.215,0.279,0.537,0.163,0.817S78.997,18.665,78.694,18.665z
		 M62.279,2.561v12.971c0,0.9,0.733,1.634,1.634,1.634h12.971L62.279,2.561z"/>
	<path fill="#FFFFFF" d="M76.31,61.099H30.538c-1.728,0-3.134-1.406-3.134-3.134v-4.81c0-0.414,0.336-0.75,0.75-0.75
		s0.75,0.336,0.75,0.75v4.81c0,0.9,0.733,1.634,1.634,1.634H76.31c0.901,0,1.635-0.733,1.635-1.634V18.226L61.219,1.5H30.538
		c-0.901,0-1.634,0.733-1.634,1.635v16.771c0,0.414-0.336,0.75-0.75,0.75s-0.75-0.336-0.75-0.75V3.135
		C27.404,1.406,28.81,0,30.538,0h30.991c0.198,0,0.39,0.079,0.53,0.22l17.164,17.165c0.141,0.141,0.221,0.331,0.221,0.53v40.05
		C79.444,59.692,78.038,61.099,76.31,61.099z"/>
	<path fill="#FFFFFF" d="M28.154,43.593c-0.414,0-0.75-0.336-0.75-0.75V30.468c0-0.414,0.336-0.75,0.75-0.75s0.75,0.336,0.75,0.75
		v12.375C28.904,43.257,28.568,43.593,28.154,43.593z"/>
	<path fill="#FFFFFF" d="M62.149,26.771H46.336c-0.414,0-0.75-0.336-0.75-0.75s0.336-0.75,0.75-0.75h15.813
		c0.414,0,0.75,0.336,0.75,0.75S62.563,26.771,62.149,26.771z"/>
	<path fill="#FFFFFF" d="M70.891,43.648H48.595c-0.414,0-0.75-0.336-0.75-0.75s0.336-0.75,0.75-0.75h22.296
		c0.414,0,0.75,0.336,0.75,0.75S71.305,43.648,70.891,43.648z"/>
	<path fill="#FFFFFF" d="M70.891,52.087H40.595c-0.414,0-0.75-0.336-0.75-0.75s0.336-0.75,0.75-0.75h30.296
		c0.414,0,0.75,0.336,0.75,0.75S71.305,52.087,70.891,52.087z"/>
	<path fill="#FFFFFF" d="M70.891,35.209H48.595c-0.414,0-0.75-0.336-0.75-0.75s0.336-0.75,0.75-0.75h22.296
		c0.414,0,0.75,0.336,0.75,0.75S71.305,35.209,70.891,35.209z"/>
	<g>
		<path fill="#FFFFFF" d="M16.968,52.765c-0.214,0-0.427-0.092-0.576-0.269c-0.266-0.317-0.224-0.791,0.094-1.057l5.432-4.547
			c0.318-0.265,0.791-0.224,1.057,0.094c0.266,0.317,0.224,0.791-0.094,1.057l-5.432,4.547
			C17.309,52.707,17.138,52.765,16.968,52.765z"/>
		<path fill="#FFFFFF" d="M14.257,49.338c-0.214,0-0.427-0.092-0.576-0.269c-0.266-0.317-0.224-0.791,0.094-1.057l5.386-4.507
			c0.319-0.266,0.791-0.223,1.057,0.094c0.266,0.317,0.224,0.791-0.094,1.057l-5.386,4.507
			C14.598,49.28,14.427,49.338,14.257,49.338z"/>
		<path fill="#FFFFFF" d="M4.716,64.113c-1.33,0-2.668-0.582-3.605-1.701c-1.646-1.967-1.438-4.86,0.462-6.452l11.011-9.214
			c0.318-0.266,0.791-0.223,1.057,0.094l5.008,5.983c0.127,0.152,0.189,0.35,0.172,0.548s-0.113,0.381-0.266,0.509L7.543,63.095
			C6.725,63.78,5.723,64.113,4.716,64.113z M12.971,48.378L2.536,57.11c-1.266,1.061-1.389,3.007-0.274,4.339
			s3.053,1.556,4.319,0.495l10.436-8.733L12.971,48.378z"/>
		<path fill="#FFFFFF" d="M31.607,51.273c-4.077,0-8.128-1.72-10.968-5.063c-2.487-2.927-3.686-6.647-3.375-10.476
			s2.094-7.307,5.021-9.793c1.825-1.551,4.02-2.629,6.348-3.117c5.167-1.079,10.504,0.741,13.922,4.764
			c2.487,2.927,3.685,6.646,3.374,10.475c-0.311,3.829-2.094,7.308-5.021,9.794C38.208,50.151,34.899,51.273,31.607,51.273z
			 M31.595,24.018c-0.881,0-1.771,0.091-2.654,0.276c-2.084,0.437-4.05,1.402-5.684,2.791c-2.622,2.228-4.219,5.343-4.498,8.772
			c-0.279,3.429,0.795,6.761,3.022,9.383c4.6,5.411,12.745,6.073,18.155,1.475c2.621-2.228,4.219-5.343,4.498-8.772
			c0.277-3.429-0.795-6.761-3.023-9.383l0,0C38.935,25.645,35.333,24.018,31.595,24.018z"/>
		<path fill="#FFFFFF" d="M31.615,47.764c-0.325,0-0.651-0.014-0.979-0.043c-2.891-0.257-5.508-1.623-7.37-3.849
			c-3.844-4.594-3.235-11.459,1.359-15.304c4.594-3.843,11.459-3.232,15.303,1.359c3.843,4.594,3.234,11.458-1.359,15.303
			C36.596,46.882,34.157,47.764,31.615,47.764z M31.588,27.54c-2.121,0-4.251,0.715-6.001,2.179
			c-3.959,3.313-4.485,9.23-1.171,13.19c1.605,1.918,3.861,3.096,6.352,3.317c2.492,0.226,4.92-0.541,6.837-2.146
			c3.959-3.313,4.485-9.23,1.171-13.189C36.928,28.681,34.267,27.54,31.588,27.54z"/>
		<path fill="#FFFFFF" d="M21.066,51.674c-0.214,0-0.427-0.092-0.576-0.269l-5.142-6.144c-0.266-0.317-0.224-0.791,0.094-1.057
			c0.318-0.265,0.791-0.224,1.057,0.094l5.142,6.144c0.266,0.317,0.224,0.791-0.094,1.057
			C21.407,51.616,21.236,51.674,21.066,51.674z"/>
	</g>
</g>
</svg>
