<?xml version="1.0" encoding="utf-8"?>
<!-- Generator: Adobe Illustrator 16.0.0, SVG Export Plug-In . SVG Version: 6.00 Build 0)  -->
<!DOCTYPE svg PUBLIC "-//W3C//DTD SVG 1.1//EN" "http://www.w3.org/Graphics/SVG/1.1/DTD/svg11.dtd">
<svg version="1.1" id="Layer_1" xmlns="http://www.w3.org/2000/svg" xmlns:xlink="http://www.w3.org/1999/xlink" x="0px" y="0px"
	 width="74px" height="69.845px" viewBox="0 0 74 69.845" enable-background="new 0 0 74 69.845" xml:space="preserve">
<g>
	<path fill="#FFFFFF" d="M37,69.845c-0.104,0-0.212-0.016-0.316-0.051l-18-6C18.275,63.658,18,63.276,18,62.845v-53
		c0-0.321,0.154-0.623,0.415-0.811c0.262-0.189,0.596-0.239,0.901-0.138l4.277,1.426c0.524,0.175,0.808,0.741,0.632,1.265
		c-0.174,0.523-0.738,0.809-1.265,0.633L20,11.233v50.892l17.316,5.771c0.524,0.176,0.807,0.742,0.632,1.266
		C37.81,69.581,37.419,69.845,37,69.845z"/>
	<path fill="#FFFFFF" d="M1,69.845c-0.207,0-0.412-0.064-0.585-0.189C0.154,69.468,0,69.167,0,68.845v-53
		c0-0.431,0.275-0.813,0.684-0.948l18-6c0.304-0.102,0.64-0.052,0.901,0.138C19.846,9.222,20,9.524,20,9.845v53
		c0,0.431-0.275,0.813-0.684,0.949l-18,6C1.213,69.828,1.106,69.845,1,69.845z M2,16.566v50.893l16-5.334V11.233L2,16.566z"/>
	<path fill="#FFFFFF" d="M73,69.845c-0.107,0-0.213-0.018-0.316-0.051l-18-6C54.276,63.658,54,63.276,54,62.845v-53
		c0-0.321,0.154-0.623,0.416-0.811c0.26-0.189,0.594-0.239,0.9-0.138l18,6C73.725,15.033,74,15.415,74,15.845v53
		c0,0.321-0.154,0.623-0.416,0.811C73.413,69.781,73.208,69.845,73,69.845z M56,62.125l16,5.334V16.566l-16-5.333V62.125z"/>
	<path fill="#FFFFFF" d="M37,69.845c-0.207,0-0.412-0.064-0.585-0.189C36.154,69.468,36,69.167,36,68.845v-29.25
		c0-0.553,0.448-1,1-1s1,0.447,1,1v27.863l16-5.334V11.233l-2.846,0.949c-0.527,0.177-1.092-0.109-1.266-0.633
		c-0.176-0.523,0.107-1.09,0.633-1.265l4.162-1.388c0.303-0.102,0.639-0.052,0.9,0.138C55.846,9.222,56,9.524,56,9.845v53
		c0,0.431-0.275,0.813-0.684,0.949l-18,6C37.213,69.828,37.106,69.845,37,69.845z"/>
	<g>
		<path fill="#FFFFFF" d="M36.85,35.749c-0.004,0-0.009,0-0.013,0c-0.266-0.004-0.52-0.113-0.705-0.304L26.431,25.44
			c-5.73-5.91-5.615-15.411,0.26-21.179C29.537,1.464,33.263-0.048,37.275,0c3.979,0.049,7.7,1.653,10.477,4.519
			c5.732,5.91,5.615,15.411-0.258,21.179l-9.945,9.764C37.363,35.646,37.111,35.749,36.85,35.749z M37.089,2
			c-3.382,0-6.571,1.306-8.998,3.688c-5.092,5-5.192,13.236-0.225,18.359l0,0l9.001,9.282l9.225-9.059
			c5.092-5.001,5.193-13.236,0.225-18.359C43.912,3.431,40.693,2.042,37.251,2C37.197,2,37.144,2,37.089,2z"/>
		<path fill="#FFFFFF" d="M37.095,22.171c-0.031,0-0.061,0-0.091,0c-1.916-0.023-3.708-0.792-5.047-2.164
			c-2.763-2.83-2.707-7.382,0.124-10.145c2.832-2.762,7.383-2.707,10.146,0.124c1.338,1.371,2.063,3.183,2.039,5.099
			s-0.792,3.708-2.164,5.047l0,0C40.752,21.45,38.977,22.171,37.095,22.171z M37.091,9.826c-1.304,0-2.607,0.488-3.613,1.469
			c-0.988,0.965-1.543,2.258-1.56,3.64s0.505,2.688,1.471,3.677s2.258,1.543,3.64,1.561c1.382,0.017,2.688-0.505,3.677-1.471l0,0
			c0.989-0.965,1.543-2.258,1.561-3.64c0.017-1.383-0.506-2.688-1.471-3.678C39.783,10.346,38.438,9.826,37.091,9.826z"/>
	</g>
</g>
</svg>
