<?xml version="1.0" encoding="utf-8"?>
<!-- Generator: Adobe Illustrator 16.0.0, SVG Export Plug-In . SVG Version: 6.00 Build 0)  -->
<!DOCTYPE svg PUBLIC "-//W3C//DTD SVG 1.1//EN" "http://www.w3.org/Graphics/SVG/1.1/DTD/svg11.dtd">
<svg version="1.1" id="Layer_1" xmlns="http://www.w3.org/2000/svg" xmlns:xlink="http://www.w3.org/1999/xlink" x="0px" y="0px"
	 width="66px" height="57px" viewBox="0 0 66 57" enable-background="new 0 0 66 57" xml:space="preserve">
<g>
	<path fill="#FFFFFF" d="M62,57H4c-2.206,0-4-1.795-4-4V30c0-0.552,0.448-1,1-1h64c0.553,0,1,0.448,1,1v23
		C66,55.205,64.205,57,62,57z M2,31v22c0,1.104,0.897,2,2,2h58c1.104,0,2-0.896,2-2V31H2z"/>
	<path fill="#FFFFFF" d="M58,27h-2V16H10v11H8V15c0-0.552,0.448-1,1-1h48c0.553,0,1,0.448,1,1V27z"/>
	<path fill="#FFFFFF" d="M55,12h-2V9H13v3h-2V8c0-0.552,0.448-1,1-1h42c0.553,0,1,0.448,1,1V12z"/>
	<path fill="#FFFFFF" d="M50,24H16c-0.552,0-1-0.448-1-1s0.448-1,1-1h34c0.553,0,1,0.448,1,1S50.553,24,50,24z"/>
	<path fill="#FFFFFF" d="M38,48H28c-1.654,0-3-1.346-3-3v-3c0-0.553,0.448-1,1-1s1,0.447,1,1v3c0,0.551,0.449,1,1,1h10
		c0.551,0,1-0.449,1-1v-3c0-0.553,0.447-1,1-1s1,0.447,1,1v3C41,46.654,39.654,48,38,48z"/>
	<path fill="#FFFFFF" d="M65,31H1c-0.311,0-0.604-0.145-0.794-0.392c-0.189-0.247-0.252-0.567-0.172-0.868l7-26
		C7.152,3.303,7.548,3,8,3h7v2H8.767L2.305,29h61.438L58.205,5H51V3h8c0.466,0,0.869,0.321,0.975,0.775l6,26
		c0.068,0.297-0.002,0.61-0.191,0.848C65.593,30.861,65.305,31,65,31z"/>
	<path fill="#FFFFFF" d="M52,5h-2V2H16v3h-2V1c0-0.552,0.448-1,1-1h36c0.553,0,1,0.448,1,1V5z"/>
</g>
</svg>
