<?xml version="1.0" encoding="utf-8"?>
<!-- Generator: Adobe Illustrator 16.0.0, SVG Export Plug-In . SVG Version: 6.00 Build 0)  -->
<!DOCTYPE svg PUBLIC "-//W3C//DTD SVG 1.1//EN" "http://www.w3.org/Graphics/SVG/1.1/DTD/svg11.dtd">
<svg version="1.1" id="Layer_1" xmlns="http://www.w3.org/2000/svg" xmlns:xlink="http://www.w3.org/1999/xlink" x="0px" y="0px"
	 width="87.5px" height="48.5px" viewBox="0 0 87.5 48.5" enable-background="new 0 0 87.5 48.5" xml:space="preserve">
<g>
	<path fill="#FFFFFF" d="M76.308,48.5H11.192c-0.414,0-0.75-0.336-0.75-0.75v-47c0-0.414,0.336-0.75,0.75-0.75h65.115
		c0.414,0,0.75,0.336,0.75,0.75v47C77.058,48.164,76.722,48.5,76.308,48.5z M11.942,47h63.615V1.5H11.942V47z"/>
	<path fill="#FFFFFF" d="M24.921,20.813c-3.378,0-6.127-2.749-6.127-6.127s2.749-6.127,6.127-6.127s6.126,2.749,6.126,6.127
		S28.299,20.813,24.921,20.813z M24.921,10.06c-2.552,0-4.627,2.075-4.627,4.627s2.075,4.627,4.627,4.627
		c2.551,0,4.626-2.075,4.626-4.627S27.472,10.06,24.921,10.06z"/>
	<g>
		<path fill="#FFFFFF" d="M43.71,43.074c-0.215,0-0.428-0.092-0.576-0.27L30.605,27.77L16.8,42.831
			c-0.278,0.306-0.753,0.326-1.06,0.046c-0.306-0.279-0.326-0.754-0.046-1.06L30.08,26.123c0.146-0.159,0.36-0.237,0.57-0.243
			c0.217,0.005,0.42,0.104,0.559,0.27l13.077,15.694c0.266,0.318,0.222,0.791-0.096,1.057C44.05,43.018,43.88,43.074,43.71,43.074z"
			/>
		<path fill="#FFFFFF" d="M72.483,43.074c-0.233,0-0.462-0.107-0.609-0.311L55.42,19.98L39.884,37.458
			c-0.276,0.312-0.75,0.337-1.059,0.063c-0.31-0.275-0.338-0.749-0.063-1.059L54.92,18.285c0.151-0.171,0.373-0.262,0.599-0.251
			c0.227,0.012,0.437,0.125,0.57,0.31l17.002,23.541c0.242,0.336,0.167,0.805-0.169,1.048
			C72.789,43.028,72.635,43.074,72.483,43.074z"/>
	</g>
	<path fill="#FFFFFF" d="M86.75,44.2h-7.525c-0.414,0-0.75-0.336-0.75-0.75s0.336-0.75,0.75-0.75H86V5.5h-6.775
		c-0.414,0-0.75-0.336-0.75-0.75S78.811,4,79.225,4h7.525c0.414,0,0.75,0.336,0.75,0.75v38.7C87.5,43.864,87.164,44.2,86.75,44.2z"
		/>
	<path fill="#FFFFFF" d="M8.275,44.2H0.75C0.336,44.2,0,43.864,0,43.45V4.75C0,4.336,0.336,4,0.75,4h7.525
		c0.414,0,0.75,0.336,0.75,0.75S8.689,5.5,8.275,5.5H1.5v37.2h6.775c0.414,0,0.75,0.336,0.75,0.75S8.689,44.2,8.275,44.2z"/>
</g>
</svg>
