<?xml version="1.0" encoding="utf-8"?>
<!-- Generator: Adobe Illustrator 16.0.0, SVG Export Plug-In . SVG Version: 6.00 Build 0)  -->
<!DOCTYPE svg PUBLIC "-//W3C//DTD SVG 1.1//EN" "http://www.w3.org/Graphics/SVG/1.1/DTD/svg11.dtd">
<svg version="1.1" id="Capa_1" xmlns="http://www.w3.org/2000/svg" xmlns:xlink="http://www.w3.org/1999/xlink" x="0px" y="0px"
	 width="595.281px" height="841.891px" viewBox="0 0 595.281 841.891" enable-background="new 0 0 595.281 841.891"
	 xml:space="preserve">
<g>
	<path d="M586.16,430.056H9.12c-5.034,0-9.12-4.086-9.12-9.12c0-5.035,4.086-9.12,9.12-9.12h577.04c5.035,0,9.121,4.085,9.121,9.12
		C595.281,425.97,591.195,430.056,586.16,430.056z"/>
	<path d="M573.263,420.918l-222.242-222.17c-3.557-3.557-3.557-9.339,0-12.896c3.557-3.558,9.34-3.558,12.896,0l228.682,228.608
		c1.715,1.715,2.662,4.031,2.662,6.457s-0.967,4.743-2.662,6.457"/>
</g>
</svg>
