<?xml version="1.0" encoding="iso-8859-1"?>
<!-- Generator: Adobe Illustrator 19.0.0, SVG Export Plug-In . SVG Version: 6.00 Build 0)  -->
<svg version="1.1" id="Layer_1" xmlns="http://www.w3.org/2000/svg" xmlns:xlink="http://www.w3.org/1999/xlink" x="0px" y="0px"
	 viewBox="0 0 512 512" style="enable-background:new 0 0 512 512;" xml:space="preserve">
<path style="fill:#607D8B;" d="M503.467,302.933V396.8c-0.026,9.412-7.654,17.041-17.067,17.067H25.6
	c-9.412-0.026-17.041-7.654-17.067-17.067v-93.867H503.467z"/>
<path style="fill:#CFD8DC;" d="M469.333,302.933V396.8c-0.026,9.412-7.654,17.041-17.067,17.067H25.6
	c-9.412-0.026-17.041-7.654-17.067-17.067v-93.867H469.333z"/>
<g>
	<circle style="fill:#37474F;" cx="256" cy="358.4" r="21.333"/>
	<path style="fill:#37474F;" d="M503.467,38.4v264.533H8.533V38.4c0.026-9.412,7.654-17.041,17.067-17.067h460.8
		C495.812,21.359,503.441,28.988,503.467,38.4z"/>
</g>
<path style="fill:#607D8B;" d="M469.333,38.4v264.533H8.533V38.4c-0.29-9.088,6.81-16.708,15.889-17.067h429.022
	C462.524,21.692,469.624,29.312,469.333,38.4z"/>
<path d="M256,388.267c-16.469,0-29.867-13.397-29.867-29.867s13.397-29.867,29.867-29.867c16.469,0,29.867,13.397,29.867,29.867
	S272.469,388.267,256,388.267z M256,345.6c-7.057,0-12.8,5.743-12.8,12.8s5.743,12.8,12.8,12.8c7.057,0,12.8-5.743,12.8-12.8
	S263.057,345.6,256,345.6z"/>
<path style="fill:#607D8B;" d="M358.4,490.667H153.6c34.133,0,34.133-34.133,34.133-34.133v-42.667h136.533v42.667
	C324.267,456.533,324.267,490.667,358.4,490.667z"/>
<path style="fill:#CFD8DC;" d="M325.461,490.667H186.539c0.708-2.79,1.109-5.658,1.195-8.533v-42.667h136.533v42.667
	C324.352,485.009,324.753,487.876,325.461,490.667z"/>
<path d="M486.4,422.4H25.6C11.486,422.4,0,410.914,0,396.8V38.4c0-14.114,11.486-25.6,25.6-25.6h460.8
	c14.114,0,25.6,11.486,25.6,25.6v358.4C512,410.914,500.514,422.4,486.4,422.4z M25.6,29.867c-4.702,0-8.533,3.831-8.533,8.533
	v358.4c0,4.71,3.831,8.533,8.533,8.533h460.8c4.71,0,8.533-3.823,8.533-8.533V38.4c0-4.702-3.823-8.533-8.533-8.533H25.6z"/>
<path d="M503.467,311.467H8.533c-4.71,0-8.533-3.814-8.533-8.533s3.823-8.533,8.533-8.533h494.933c4.719,0,8.533,3.814,8.533,8.533
	S508.186,311.467,503.467,311.467z"/>
<path d="M153.6,499.2c-4.71,0-8.533-3.814-8.533-8.533c0-4.719,3.823-8.533,8.533-8.533c24.09,0,25.549-21.367,25.6-25.651v-42.615
	c0-4.719,3.823-8.533,8.533-8.533c4.71,0,8.533,3.814,8.533,8.533v42.667C196.267,471.288,187.349,499.2,153.6,499.2z"/>
<path d="M358.4,499.2c-33.749,0-42.667-27.913-42.667-42.667v-42.667c0-4.719,3.814-8.533,8.533-8.533
	c4.719,0,8.533,3.814,8.533,8.533v42.667c0.051,4.233,1.51,25.6,25.6,25.6c4.719,0,8.533,3.814,8.533,8.533
	C366.933,495.386,363.119,499.2,358.4,499.2z"/>
<path d="M409.6,499.2H102.4c-4.71,0-8.533-3.814-8.533-8.533c0-4.719,3.823-8.533,8.533-8.533h307.2
	c4.719,0,8.533,3.814,8.533,8.533C418.133,495.386,414.319,499.2,409.6,499.2z"/>
<path d="M221.867,456.533c-2.219,0-4.437-0.939-6.059-2.475c-1.536-1.621-2.475-3.84-2.475-6.059s0.939-4.446,2.475-6.059
	c3.157-3.157,8.96-3.157,12.117,0c1.536,1.613,2.475,3.84,2.475,6.059s-0.939,4.437-2.475,6.059
	C226.304,455.595,224.085,456.533,221.867,456.533z"/>
<path d="M256,456.533c-2.219,0-4.437-0.939-6.059-2.475c-1.536-1.621-2.475-3.84-2.475-6.059s0.939-4.446,2.475-6.059
	c3.157-3.157,8.96-3.157,12.117,0c1.536,1.613,2.475,3.84,2.475,6.059s-0.939,4.437-2.475,6.059
	C260.437,455.595,258.219,456.533,256,456.533z"/>
<path d="M290.133,456.533c-2.219,0-4.446-0.939-6.059-2.475c-1.545-1.621-2.475-3.84-2.475-6.059s0.93-4.446,2.475-6.059
	c3.157-3.157,8.96-3.157,12.117,0c1.536,1.613,2.475,3.84,2.475,6.059s-0.939,4.437-2.475,6.059
	C294.571,455.595,292.352,456.533,290.133,456.533z"/>
<path d="M42.667,81.067c-2.185,0-4.369-0.836-6.033-2.5c-3.337-3.337-3.337-8.73,0-12.066L53.7,49.434
	c3.337-3.337,8.73-3.337,12.066,0c3.337,3.337,3.337,8.73,0,12.066L48.7,78.566C47.036,80.23,44.851,81.067,42.667,81.067z"/>
<path d="M59.733,115.2c-2.185,0-4.369-0.836-6.033-2.5c-3.337-3.337-3.337-8.73,0-12.066l51.2-51.2c3.337-3.337,8.73-3.337,12.066,0
	c3.337,3.337,3.337,8.73,0,12.066l-51.2,51.2C64.102,114.364,61.918,115.2,59.733,115.2z"/>
<g>
	<path style="fill:#E91E63;" d="M281.6,115.2c0,14.14-11.46,25.6-25.6,25.6c-14.14,0-25.6-11.46-25.6-25.6s11.46-25.6,25.6-25.6
		c14.097-0.043,25.557,11.358,25.6,25.455C281.6,115.098,281.6,115.149,281.6,115.2z"/>
	<path style="fill:#E91E63;" d="M270.763,136.107c11.742,5.265,19.311,16.913,19.371,29.781V192h-68.267v-26.112
		c0.06-12.868,7.629-24.516,19.371-29.781"/>
</g>
<path d="M256,149.333c-18.825,0-34.133-15.309-34.133-34.133S237.175,81.067,256,81.067c0.034,0,0.068,0,0.102,0
	c18.705,0,33.971,15.215,34.031,33.954c0,0.009,0,0.171,0,0.179C290.133,134.025,274.825,149.333,256,149.333z M256.077,98.133
	c-0.017,0-0.034,0-0.051,0c-9.438,0-17.092,7.654-17.092,17.067s7.654,17.067,17.067,17.067c9.412,0,17.067-7.654,17.067-17.067
	v-0.154C273.041,105.719,265.421,98.133,256.077,98.133z"/>
<path d="M290.133,200.533h-68.267c-4.71,0-8.533-3.823-8.533-8.533v-26.112c0.068-16.213,9.651-30.942,24.414-37.564l6.98,15.573
	c-8.661,3.883-14.285,12.535-14.327,22.033v17.536h51.2v-17.579c-0.043-9.455-5.666-18.108-14.327-21.999l6.98-15.565
	c14.754,6.622,24.337,21.35,24.405,37.521V192C298.667,196.71,294.852,200.533,290.133,200.533z"/>
<path d="M315.733,234.667H196.267c-4.71,0-8.533-3.823-8.533-8.533s3.823-8.533,8.533-8.533h119.467
	c4.719,0,8.533,3.823,8.533,8.533S320.452,234.667,315.733,234.667z"/>
<path d="M315.733,268.8H196.267c-4.71,0-8.533-3.814-8.533-8.533c0-4.71,3.823-8.533,8.533-8.533h119.467
	c4.719,0,8.533,3.823,8.533,8.533C324.267,264.986,320.452,268.8,315.733,268.8z"/>
<g>
</g>
<g>
</g>
<g>
</g>
<g>
</g>
<g>
</g>
<g>
</g>
<g>
</g>
<g>
</g>
<g>
</g>
<g>
</g>
<g>
</g>
<g>
</g>
<g>
</g>
<g>
</g>
<g>
</g>
</svg>
