<?xml version="1.0" encoding="utf-8"?>
<!-- Generator: Adobe Illustrator 16.0.0, SVG Export Plug-In . SVG Version: 6.00 Build 0)  -->
<!DOCTYPE svg PUBLIC "-//W3C//DTD SVG 1.1//EN" "http://www.w3.org/Graphics/SVG/1.1/DTD/svg11.dtd">
<svg version="1.1" id="Layer_1" xmlns="http://www.w3.org/2000/svg" xmlns:xlink="http://www.w3.org/1999/xlink" x="0px" y="0px"
	 width="106.238px" height="150.145px" viewBox="0 0 106.238 150.145" enable-background="new 0 0 106.238 150.145"
	 xml:space="preserve">
<g>
	<path fill="none" stroke="#354254" stroke-width="3" stroke-linecap="round" stroke-miterlimit="10" d="M-202.673,134.434
		l30.096-6.234l-3.979-19.92c-0.879-4.393-3.266-8.389-6.729-11.251c-2.212-1.819-4.45-2.989-6.594-3.461l-17.011-4.939
		c-0.369-0.106-0.72-0.271-1.038-0.485c-0.896-0.604-1.484-1.57-1.609-2.645l-0.785-6.73c5.168-4.709,6.938-8.905,7.215-14.88
		c0.077-8.76-3.605-20.312-3.605-20.312c-1.059-3.083-3.084-6.167-5.375-7.907c-6.693-5.084-16.042-5.401-22.807-0.414
		c-2.393,1.764-4.516,4.962-5.578,8.321c0,0-3.682,11.552-3.606,20.312c0.277,5.975,2.047,10.171,7.216,14.88l-0.785,6.73
		c-0.125,1.074-0.713,2.04-1.61,2.645c-0.319,0.215-0.668,0.379-1.038,0.485l-17.01,4.939c-2.145,0.472-4.383,1.642-6.595,3.461
		c-3.463,2.862-5.85,6.858-6.729,11.251l-3.979,19.92l30.096,6.234"/>
	<path fill="none" stroke="#354254" stroke-width="3" stroke-linecap="round" stroke-linejoin="round" stroke-miterlimit="10" d="
		M-208.577,87.581L-208.577,87.581c-9.091,6.066-20.938,6.066-30.028,0l0,0"/>
	
		<line fill="none" stroke="#354254" stroke-width="3" stroke-linecap="round" stroke-miterlimit="10" x1="-223.592" y1="112.749" x2="-223.592" y2="128.65"/>
	
		<line fill="none" stroke="#354254" stroke-width="3" stroke-linecap="round" stroke-linejoin="round" stroke-miterlimit="10" stroke-dasharray="0.01,5" x1="-223.592" y1="105.26" x2="-223.592" y2="97.354"/>
	<path fill="none" stroke="#354254" stroke-width="3" stroke-linecap="round" stroke-miterlimit="10" d="M-223.592,15.712
		c9.934,0,20.341,5.525,24.501,14.82c1.83,4.092,2.575,8.578,3.092,13.03c0.73,6.276,1.052,12.249,4.059,17.911
		c2.194,4.131,5.556,7.037,10.879,7.677c0,0-6.502,11.148-20.648,8.722"/>
	<path fill="none" stroke="#354254" stroke-width="3" stroke-linecap="round" stroke-miterlimit="10" d="M-223.592,15.712
		c-9.933,0-20.341,5.525-24.5,14.82c-1.831,4.092-2.576,8.578-3.093,13.03c-0.73,6.276-1.052,12.249-4.059,17.911
		c-2.194,4.131-5.555,7.037-10.878,7.677c0,0,6.502,11.148,20.647,8.722"/>
</g>
<g>
	
		<path id="XMLID_29_" fill="none" stroke="#404548" stroke-width="3" stroke-linecap="round" stroke-linejoin="round" stroke-miterlimit="10" d="
		M32.514,61.626c-3.733-5.79-6.36-12.474-6.857-19.387c-0.181-2.514,2.337-11.958,12.714-21.021
		c3.388-2.958,9.142-7.212,17.582-10.197"/>
	
		<path id="XMLID_31_" fill="none" stroke="#404548" stroke-width="3" stroke-linecap="round" stroke-linejoin="round" stroke-miterlimit="10" d="
		M32.514,61.626c2.255,10.838,7.127,17.806,16.091,24.131c1.244,0.871,2.644,1.306,4.046,1.309H52.47h0.364H52.65
		c1.405-0.003,2.805-0.438,4.05-1.309c8.963-6.325,13.99-13.293,16.245-24.131"/>
	<g id="XMLID_37_">
		
			<path id="XMLID_19_" fill="none" stroke="#404548" stroke-width="3" stroke-linecap="round" stroke-linejoin="round" stroke-miterlimit="10" d="
			M62.303,28.904c-1.966,3.717-4.932,6.716-8.293,9.201c-3.318,2.454-7.189,4.174-10.419,6.714c-1.963,1.544-5.84,4.66-8.615,10.02
			c-1.313,2.534-2.084,5.175-2.462,6.788c0,0-5.521,4.116-2.571,9.876c2.949,5.759,3.934,8.988,1.125,11.376"/>
		
			<path id="XMLID_38_" fill="none" stroke="#404548" stroke-width="3" stroke-linecap="round" stroke-linejoin="round" stroke-miterlimit="10" d="
			M52.269,39.531c1.715,0.651,3.562,1.538,5.418,2.76c8.306,5.46,14.123,15.479,15.259,19.336"/>
	</g>
	
		<path id="XMLID_36_" fill="none" stroke="#404548" stroke-width="3" stroke-linecap="round" stroke-linejoin="round" stroke-miterlimit="10" d="
		M39.439,15.078c-0.948-2.479-0.576-4.077-0.306-4.833c0.819-2.296,3.153-3.604,5.148-4.746c4.125-2.358,5.994-3.858,7.314-3.979
		c1.048-0.098,3.779-0.079,9.909,6.034c2.133,2.127,6.409,6.719,11.837,16.473c3.372,6.056,5.058,9.083,5.58,12.462
		c1.002,6.452-0.829,12.15-2.137,16.228c-1.233,3.848-2.718,6.873-3.841,8.91"/>
	
		<path id="XMLID_740_" fill="none" stroke="#404548" stroke-width="3" stroke-linecap="round" stroke-linejoin="round" stroke-miterlimit="10" d="
		M64.129,79.375v2.885c0,5.503,3.657,9.932,8.975,11.411l17.371,4.898c5.682,1.574,10.36,5.555,12.852,10.901
		c0.02,0.041,0.04,0.072,0.063,0.125c1.084,2.396,1.502,5.053,1.301,7.681l-2.291,30.545"/>
	
		<path id="XMLID_739_" fill="none" stroke="#404548" stroke-width="3" stroke-linecap="round" stroke-linejoin="round" stroke-miterlimit="10" d="
		M42.077,80.292v1.969c0,5.503-3.658,9.932-8.975,11.411L15.741,98.57H15.73c-5.682,1.574-10.35,5.555-12.852,10.901
		c0,0.01-0.01,0.031-0.02,0.041c-1.136,2.471-1.53,5.201-1.294,7.911l4.661,30.398"/>
	<path fill="none" stroke="#404548" stroke-width="3" stroke-linecap="round" stroke-linejoin="round" stroke-miterlimit="10" d="
		M22.693,148.645l-1.076-11.933l-2.63-7.855c-1.988-4.313-1.012-7.011,1.652-8.359c0.707-0.337,1.382-0.775,2.09-1.112
		c6.202-3.169,16.516-6.572,32.057-6.237c3.81,0.068,8.968,0.777,12.307,1.418"/>
	<path fill="none" stroke="#404548" stroke-width="3" stroke-linecap="round" stroke-linejoin="round" stroke-miterlimit="10" d="
		M72.754,115.441l3.642,1.113c2.998,0.942,5.29,2.663,7.552,3.067c4.246,0.741,6.202,2.562,0.672,12.169l-0.742,16.854"/>
	
		<line fill="none" stroke="#404548" stroke-width="3" stroke-linecap="round" stroke-linejoin="round" stroke-miterlimit="10" x1="67.093" y1="114.566" x2="64.731" y2="148.645"/>
</g>
<path fill="none" stroke="#404448" stroke-width="3" stroke-miterlimit="10" d="M-246.65,359.396
	c12.2-1.342,22.037-6.957,27.417-15.522c3.434,6.208,9.282,11.234,15.82,13.44c0.043,0.735,0.071,1.474,0.071,2.211
	c0,9.974-3.925,18.766-9.852,23.863c-0.054,0.043-0.107,0.084-0.157,0.133c-3.385,2.857-7.407,4.522-11.721,4.522
	C-236.098,388.044-245.822,374.887-246.65,359.396z M-259.715,320.754c-1.188-3.358-0.483-7.423,1.639-9.457
	c19.74-18.912,46.267-18.913,66.006-0.004c2.123,2.033,2.828,6.098,1.628,9.489l-6.028,17.917
	c-7.575-8.424-17.835-14.613-28.564-14.792c-0.026-0.001-0.051-0.001-0.078,0c-10.727,0.179-20.987,6.368-28.563,14.791
	L-259.715,320.754z M-258.248,373.635c-2.581-3.58-3.335-8.142-2.24-13.562c3.891-14.684,19.365-31.202,35.415-31.497
	c10.462,0.192,20.677,7.28,27.601,16.258c0.014,0.019,0.03,0.038,0.045,0.056c3.675,4.78,6.419,10.091,7.769,15.183
	c1.095,5.42,0.341,9.982-2.24,13.562c-3.102,4.301-8.362,6.706-13.539,8.046c4.203-5.881,6.765-13.648,6.765-22.155
	c0-1.411-0.071-2.831-0.211-4.223c-0.1-1.005-0.828-1.787-1.754-2.021l-0.001-0.001c-7.199-1.887-13.863-8.291-16.208-15.572
	c-0.301-0.936-1.157-1.583-2.141-1.618c-0.969-0.029-1.882,0.552-2.249,1.465c-4.007,9.997-14.462,16.494-27.966,17.38
	c-0.054,0.003-0.103,0.019-0.155,0.026c-0.081,0.01-0.16,0.021-0.238,0.04c-0.074,0.017-0.144,0.042-0.215,0.066
	c-0.073,0.026-0.145,0.051-0.215,0.083c-0.069,0.032-0.134,0.07-0.2,0.108c-0.064,0.038-0.128,0.076-0.188,0.12
	c-0.062,0.044-0.118,0.093-0.174,0.143c-0.056,0.05-0.111,0.098-0.162,0.152c-0.051,0.055-0.096,0.113-0.141,0.172
	c-0.046,0.06-0.091,0.119-0.131,0.183c-0.04,0.063-0.073,0.128-0.107,0.196c-0.034,0.067-0.067,0.134-0.094,0.206
	c-0.028,0.071-0.048,0.145-0.068,0.22c-0.02,0.072-0.04,0.144-0.053,0.22c-0.014,0.078-0.019,0.158-0.024,0.239
	c-0.004,0.053-0.017,0.104-0.017,0.158c0,8.737,2.709,17.591,7.431,24.292c0.091,0.13,0.186,0.249,0.278,0.377
	C-249.174,380.653-254.939,378.223-258.248,373.635z M-233.616,399.776c1.171-0.143,2.051-1.138,2.051-2.317v-5.877
	c2.101,0.748,4.277,1.134,6.493,1.134c2.24,0,4.414-0.356,6.492-1.018v5.761c0,1.18,0.88,2.175,2.051,2.317
	c3.159,0.386,6.208,0.998,9.098,1.811l-17.539,23.451l-17.696-23.466C-239.79,400.765-236.759,400.161-233.616,399.776z
	 M-181.945,432.147h-86.255c-1.364-5.527-0.253-11.123,3.23-16.223c3.719-5.44,9.935-9.889,17.617-12.811l20.527,27.219
	c0.442,0.586,1.132,0.929,1.865,0.929h0.004c0.735-0.002,1.426-0.348,1.866-0.937l20.339-27.196
	c7.663,2.922,13.864,7.363,17.577,12.796C-181.692,421.024-180.581,426.62-181.945,432.147z"/>
<g>
	<path fill="#010101" d="M24.409,318.218c-0.688,0-1.245,0.559-1.245,1.246v24.487h-2.767v-24.487c0-0.687-0.558-1.246-1.245-1.246
		s-1.245,0.559-1.245,1.246v24.487h-2.767v-24.487c0-0.687-0.559-1.246-1.246-1.246s-1.244,0.559-1.244,1.246v24.487H9.883v-24.487
		c0-0.687-0.557-1.246-1.244-1.246c-0.688,0-1.246,0.559-1.246,1.246v31.958c0,3.762,2.325,7.122,5.763,8.487l-1.647,58.918
		c-0.043,1.554,0.617,3.013,1.813,4.004c0.898,0.744,2.035,1.154,3.202,1.154c1.166,0,2.305-0.41,3.203-1.154
		c1.195-0.991,1.856-2.45,1.813-4.004l-1.647-58.918c3.438-1.365,5.762-4.725,5.762-8.487v-31.958
		C25.654,318.776,25.097,318.218,24.409,318.218z M23.164,351.421c0,2.979-2.004,5.61-4.873,6.4
		c-0.553,0.153-0.93,0.663-0.914,1.236l1.674,59.839c0.021,0.782-0.312,1.517-0.914,2.017c-0.452,0.375-1.025,0.581-1.613,0.581
		s-1.16-0.206-1.612-0.581c-0.603-0.5-0.937-1.234-0.914-2.016l1.674-59.84c0.016-0.573-0.362-1.083-0.915-1.236
		c-2.869-0.79-4.873-3.421-4.873-6.4v-4.98h13.28L23.164,351.421L23.164,351.421z"/>
	<path fill="#010101" d="M55.514,318.218c-7.973,0-14.157,13.461-14.157,25.041c0,4.944,1.132,8.939,3.364,11.873
		c1.836,2.414,4.388,4.022,7.427,4.693l-1.649,59.001c-0.043,1.554,0.617,3.013,1.813,4.004c0.898,0.744,2.035,1.154,3.202,1.154
		s2.305-0.41,3.203-1.154c1.195-0.991,1.856-2.45,1.813-4.004l-1.649-59.001c3.039-0.671,5.59-2.279,7.428-4.693
		c2.231-2.934,3.363-6.929,3.363-11.873C69.672,331.679,63.486,318.218,55.514,318.218z M57.431,357.558
		c-0.627,0.089-1.087,0.635-1.069,1.268l1.68,60.071c0.021,0.781-0.312,1.516-0.914,2.016c-0.452,0.374-1.025,0.581-1.613,0.581
		c-0.587,0-1.16-0.207-1.613-0.581c-0.602-0.5-0.936-1.234-0.913-2.016l1.68-60.071c0.018-0.633-0.442-1.179-1.07-1.268
		c-6.287-0.894-9.75-5.971-9.75-14.3c0-11.169,5.888-22.55,11.667-22.55c5.778,0,11.668,11.381,11.668,22.55
		C67.182,351.587,63.718,356.666,57.431,357.558z"/>
	<path fill="#010101" d="M64.046,349.132c-0.622-0.294-1.364-0.027-1.657,0.595c-0.587,1.242-1.367,2.242-2.321,2.972
		c-0.546,0.418-0.65,1.199-0.232,1.746c0.245,0.32,0.615,0.489,0.99,0.489c0.263,0,0.53-0.083,0.755-0.256
		c1.273-0.974,2.303-2.281,3.061-3.887C64.935,350.167,64.668,349.425,64.046,349.132z"/>
	<path fill="#010101" d="M60.142,328.838c2.152,3.633,3.544,9.128,3.544,13.999c0,0.871-0.045,1.71-0.133,2.494
		c-0.076,0.683,0.415,1.299,1.099,1.376c0.048,0.005,0.094,0.008,0.141,0.008c0.625,0,1.164-0.47,1.235-1.106
		c0.098-0.875,0.148-1.809,0.148-2.772c0-5.366-1.491-11.217-3.893-15.268c-0.351-0.592-1.113-0.788-1.705-0.437
		C59.985,327.483,59.791,328.247,60.142,328.838z"/>
	<path fill="#010101" d="M94.307,317.948c-2.802,0-5.081,2.279-5.081,5.08v49.08l-1.306,46.718
		c-0.043,1.554,0.617,3.013,1.813,4.004c0.897,0.744,2.036,1.155,3.203,1.155s2.304-0.41,3.202-1.155
		c1.196-0.991,1.856-2.45,1.813-4.004l-1.22-43.623c2.919-1.014,4.945-3.79,4.945-6.959v-42.926
		C101.678,321.253,98.371,317.948,94.307,317.948z M99.188,368.243c0,2.339-1.667,4.354-3.961,4.792
		c-0.601,0.114-1.029,0.647-1.012,1.258l1.247,44.603c0.021,0.781-0.312,1.517-0.913,2.017c-0.453,0.374-1.026,0.581-1.613,0.581
		c-0.588,0-1.161-0.207-1.613-0.581c-0.603-0.5-0.936-1.235-0.914-2.017l1.307-46.737c0-0.011,0.001-0.023,0.001-0.035v-49.096
		c0-1.428,1.162-2.59,2.591-2.59c2.69,0,4.88,2.189,4.88,4.88L99.188,368.243L99.188,368.243z"/>
	<path fill="#010101" d="M96.678,331.868c-0.688,0-1.246,0.558-1.246,1.246v13.004c0,0.688,0.558,1.246,1.246,1.246
		c0.687,0,1.244-0.557,1.244-1.246v-13.004C97.922,332.426,97.364,331.868,96.678,331.868z"/>
	<path fill="#010101" d="M96.678,323.983c-0.688,0-1.245,0.558-1.245,1.245v4.15c0,0.688,0.558,1.246,1.245,1.246
		s1.244-0.557,1.244-1.246v-4.15C97.922,324.54,97.365,323.983,96.678,323.983z"/>
</g>
<g>
	<path fill="none" stroke="#515151" stroke-width="3" stroke-miterlimit="10" d="M-225.517,635.451l-14.457-14.456
		c-1.596-1.597-1.479-4.303,0.118-5.899l2.773-2.773"/>
	<path fill="none" stroke="#515151" stroke-width="3" stroke-miterlimit="10" d="M-213.954,623.885l-18.79-18.792
		c-1.597-1.598-4.129-1.655-5.726-0.059l-0.028,0.028c-1.597,1.598-1.625,4.217-0.03,5.812l18.792,18.793"/>
	<path fill="none" stroke="#515151" stroke-width="3" stroke-miterlimit="10" d="M-206.725,660.025l-4.342-4.34
		c-2.545-2.548-8.292-2.51-11.563-5.784l-17.343-17.341c-1.596-1.598-1.479-4.305,0.118-5.901l2.773-2.773"/>
	<path fill="none" stroke="#515151" stroke-width="3" stroke-miterlimit="10" d="M-206.725,619.549
		c-0.858-0.858-15.901-15.901-15.901-15.901c-1.597-1.598-4.069-1.715-5.666-0.118l-3.006,3.009"/>
	<path fill="none" stroke="#515151" stroke-width="3" stroke-miterlimit="10" d="M-185.041,638.341l-4.34-4.34
		c-2.464-2.464-3.23-5.225-3.833-8.427c-0.867-4.584-3.035-7.113-4.841-8.92c-1.807-1.808-3.729-3.731-7.223-7.226
		c-2.168-2.168-4.336-1.445-5.784,0l-2.891,2.893"/>
	<polyline fill="none" stroke="#515151" stroke-width="3" stroke-miterlimit="10" points="-200.943,668.699 -208.17,661.47 
		-183.596,636.896 -176.369,644.124 	"/>
	<path fill="none" stroke="#515151" stroke-width="3" stroke-miterlimit="10" d="M-261.656,605.093l4.34,4.34
		c2.546,2.548,2.511,8.293,5.783,11.565l5.779,5.777"/>
	<path fill="none" stroke="#515151" stroke-width="3" stroke-miterlimit="10" d="M-239.973,583.41l4.342,4.341
		c2.462,2.463,5.223,3.229,8.425,3.833c4.583,0.864,7.113,3.034,8.92,4.841c1.809,1.807,3.731,3.729,7.223,7.224"/>
	<polyline fill="none" stroke="#515151" stroke-width="3" stroke-miterlimit="10" points="-270.33,599.311 -263.102,606.539 
		-238.527,581.964 -245.754,574.738 	"/>
	<path fill="none" stroke="#515151" stroke-width="3" stroke-miterlimit="10" d="M-239.973,658.58l4.338-4.336
		c1.765-1.768,5.071-2.293,8.022-3.54"/>
	<path fill="none" stroke="#515151" stroke-width="3" stroke-miterlimit="10" d="M-261.656,636.896l4.336-4.336
		c2.311-2.313,3.132-4.888,3.723-7.842"/>
	<polyline fill="none" stroke="#515151" stroke-width="3" stroke-miterlimit="10" points="-245.754,667.251 -238.527,660.025 
		-263.102,635.451 -270.33,642.678 	"/>
	<path fill="none" stroke="#515151" stroke-width="3" stroke-miterlimit="10" d="M-185.041,603.648l-4.336,4.336
		c-1.765,1.767-2.292,5.073-3.54,8.025"/>
	<path fill="none" stroke="#515151" stroke-width="3" stroke-miterlimit="10" d="M-206.725,581.964l-4.338,4.336
		c-2.312,2.314-4.894,3.135-7.852,3.726"/>
	<polyline fill="none" stroke="#515151" stroke-width="3" stroke-miterlimit="10" points="-176.369,597.866 -183.596,605.093 
		-208.17,580.519 -200.943,573.29 	"/>
</g>
<g>
	<path fill="none" stroke="#515151" stroke-width="3" stroke-miterlimit="10" d="M32.03,658.977
		c0.955-0.954,1.937-2.494,4.989-2.494c3.055,0,33.655,0,36.71,0c2.772,0,18.018-15.288,19.956-17.461
		c1.864-2.091,10.171-14.57,12.473-19.956c-1.447-1.949-5.356-3.566-9.978-2.495c-4.409,1.023-7.004,4.19-9.979,9.979l-11.435,5.938
		"/>
	<path fill="none" stroke="#515151" stroke-width="3" stroke-miterlimit="10" d="M46.291,641.516c0,0,19.955,0,22.45,0
		c9.978,0,9.978-12.473,0-12.473c-2.495,0-8.031,0-14.967,0c-2.078,0-5.976-4.988-9.271-4.988c-1.462,0-9.102,0-12.473,0
		c-3.369,0-7.557,2.732-9.979,4.988c-3.736,3.739-10.331,9.979-10.331,9.979"/>
	
		<rect x="8.761" y="633.339" transform="matrix(-0.7071 0.7071 -0.7071 -0.7071 488.5572 1103.1155)" fill="none" stroke="#515151" stroke-width="3" stroke-miterlimit="10" width="14.11" height="38.805"/>
	<path fill="none" stroke="#515151" stroke-width="3" stroke-miterlimit="10" d="M63.752,589.132c4.499,0,7.483-3.83,7.483-8.551
		v-2.854c0-4.722-2.984-8.551-7.483-8.551s-7.483,3.829-7.483,8.551v2.854C56.269,585.302,59.253,589.132,63.752,589.132z"/>
	<path fill="none" stroke="#515151" stroke-width="3" stroke-miterlimit="10" d="M88.697,594.121c4.499,0,7.483-3.829,7.483-8.55
		v-2.855c0-4.721-2.984-8.551-7.483-8.551c-4.5,0-7.483,3.83-7.483,8.551v2.855C81.214,590.292,84.197,594.121,88.697,594.121z"/>
	<path fill="none" stroke="#515151" stroke-width="3" stroke-miterlimit="10" d="M38.808,594.121c4.499,0,7.483-3.829,7.483-8.55
		v-2.855c0-4.721-2.984-8.551-7.483-8.551c-4.5,0-7.484,3.83-7.484,8.551v2.855C31.323,590.292,34.308,594.121,38.808,594.121z"/>
	<path fill="none" stroke="#515151" stroke-width="3" stroke-miterlimit="10" d="M78.719,621.56v-17.461
		c0-6.181-9.769-7.483-14.967-7.483s-14.967,1.303-14.967,7.483v14.967"/>
	<path fill="none" stroke="#515151" stroke-width="3" stroke-miterlimit="10" d="M101.169,611.583v-2.495
		c0-6.18-9.768-7.483-14.967-7.483c-2.07,0-4.867,0.207-7.483,0.848"/>
	<path fill="none" stroke="#515151" stroke-width="3" stroke-miterlimit="10" d="M26.335,619.066v-9.979
		c0-6.18,9.769-7.483,14.967-7.483c2.07,0,4.867,0.207,7.483,0.848"/>
</g>
</svg>
