<?xml version="1.0" encoding="iso-8859-1"?>
<!-- Generator: Adobe Illustrator 19.0.0, SVG Export Plug-In . SVG Version: 6.00 Build 0)  -->
<svg version="1.1" id="Capa_1" xmlns="http://www.w3.org/2000/svg" xmlns:xlink="http://www.w3.org/1999/xlink" x="0px" y="0px"
	 viewBox="0 0 488 488" style="enable-background:new 0 0 488 488;" xml:space="preserve">
<g>
	<path style="fill:#FF7BAC;" d="M440,284c0,52.4-31.44,98.88-80,128v0.08L328,476l-20.64-41.28c-21.04,6-43.76,9.28-67.36,9.28
		s-46.32-3.28-67.36-9.28L152,476l-32-63.92V412c-18.88-11.36-35.2-25.28-48-41.28V372H8V196h64v1.28
		c16.32-20.32,38.24-37.44,64-49.92V92l40.32,40.32c7.76-2.08,15.68-3.84,23.76-5.12c0,1.6-0.08,3.2-0.08,4.8
		c0,9.52,1.52,18.64,4.32,27.2c11.44-2.08,23.44-3.2,35.68-3.2c43.52,0,83.04,13.92,111.92,36.48c8-8.48,14.4-18.48,18.56-29.68
		C413.04,192.08,440,235.52,440,284z"/>
	<path style="fill:#FF7BAC;" d="M440,292v-16c17.645,0,32-14.352,32-32h16C488,270.469,466.469,292,440,292z"/>
</g>
<path style="fill:#4C7464;" d="M168,244c-2.047,0-4.094-0.781-5.656-2.344L136,215.313l-26.344,26.344l-11.313-11.313l32-32
	c3.125-3.125,8.188-3.125,11.313,0L168,224.688l10.344-10.344l11.313,11.313l-16,16C172.094,243.219,170.047,244,168,244z"/>
<path style="fill:#FCEE21;" d="M376,132c0,10.8-1.92,21.2-5.52,30.8c-4.16,11.2-10.56,21.2-18.56,29.68
	C323.04,169.92,283.52,156,240,156c-12.24,0-24.24,1.12-35.68,3.2c-2.8-8.56-4.32-17.68-4.32-27.2c0-1.6,0.08-3.2,0.08-4.8
	c1.2-21.52,10.08-40.96,23.92-55.6C240,54.56,262.72,44,288,44c21.28,0,40.8,7.52,56,20.08V100h-24c-8.8,0-16,7.2-16,16v16h64
	l7.68-7.68C375.92,126.88,376,129.44,376,132z"/>
<path style="fill:#B7A209;" d="M352.738,203.266L347,198.781C318.277,176.352,280.277,164,240,164
	c-11.543,0-23.063,1.031-34.246,3.07l-6.867,1.258l-2.172-6.641C193.586,152.125,192,142.133,192,132l0.078-4.797
	c1.277-23.094,10.547-44.633,26.109-61.094C236.41,46.695,261.211,36,288,36c22.293,0,43.988,7.781,61.094,21.914L352,60.313V108
	h-32c-4.41,0-8,3.586-8,8v8h52.688l17.355-17.359l1.602,16.93c0.266,2.813,0.355,5.617,0.355,8.43
	c0,11.633-2.027,22.938-6.027,33.609c-4.438,11.938-11.246,22.836-20.234,32.359L352.738,203.266z M240,148
	c41.055,0,80.063,11.891,110.746,33.633c5.242-6.594,9.348-13.844,12.234-21.617c2.41-6.43,3.957-13.133,4.633-20.016H296v-24
	c0-13.234,10.766-24,24-24h16V67.961C322.242,57.641,305.34,52,288,52c-22.324,0-42.984,8.906-58.168,25.078
	c-12.988,13.742-20.711,31.695-21.766,50.57L208,132c0,6.148,0.699,12.227,2.086,18.156C219.93,148.727,229.961,148,240,148z"/>
<rect x="32" y="220" style="fill:#D8568B;" width="16" height="80"/>
<path style="fill:#DFB28B;" d="M472,12v88h-72l-32,32h-64v-16c0-8.8,7.2-16,16-16h24V64.08C328.8,51.52,309.28,44,288,44
	c-25.28,0-48,10.56-64,27.6V12H472z"/>
<g>
	<path style="fill:#FBF7ED;" d="M377.086,232.156c-7.535-12.383-17.664-23.617-30.105-33.391l9.883-12.578
		c13.953,10.961,25.359,23.625,33.895,37.656L377.086,232.156z"/>
	<path style="fill:#FBF7ED;" d="M186.332,171.727l-4.664-15.297c6.586-2.016,13.723-3.727,21.211-5.094l2.883,15.734
		C198.871,168.336,192.336,169.898,186.332,171.727z"/>
</g>
<path style="fill:#D8568B;" d="M16,348H8v-16h8c26.469,0,48-21.531,48-48h16C80,319.289,51.289,348,16,348z"/>
<rect x="388.001" y="243.055" transform="matrix(-0.8944 0.4472 -0.4472 -0.8944 862.8915 300.299)" style="fill:#FBF7ED;" width="16" height="17.888"/>
<circle style="fill:#E23923;" cx="152" cy="332" r="32"/>
<path d="M472,244c0,14.96-10.4,27.52-24.32,30.96c-2.88-44.16-27.2-85.44-67.84-115.2c2.72-8.96,4.16-18.24,4.16-27.76
	c0-1.52-0.16-2.96-0.16-4.48L403.28,108H472c4.4,0,8-3.6,8-8V12c0-4.4-3.6-8-8-8H224c-4.4,0-8,3.6-8,8v56.64
	c-12.72,14.4-20.8,32.4-23.28,51.76c-4.56,0.88-9.12,1.84-14,3.04l-37.04-37.12c-2.32-2.24-5.76-2.96-8.72-1.68
	C129.92,85.84,128,88.8,128,92v50.4c-22.96,11.84-43.12,27.44-58.72,45.6H8c-4.4,0-8,3.6-8,8v176c0,4.4,3.6,8,8,8h61.28
	c12.24,14.24,27.2,26.88,44.56,37.6l31.04,62c2.64,5.36,11.6,5.36,14.24,0l17.76-35.44c40.72,10.4,85.52,10.4,126.24,0l17.76,35.44
	c1.28,2.72,4.08,4.4,7.12,4.4s5.76-1.68,7.12-4.4l31.04-62c48.88-30.08,78.88-76.72,81.6-126.32C470.56,287.6,488,267.84,488,244
	H472z M232,20h232v72h-64c-2.16,0-4.16,0.88-5.68,2.32L370,118.64l-5.28,5.36H312v-8c0-4.4,3.6-8,8-8h24c4.4,0,8-3.6,8-8V64.08
	c0-2.4-1.04-4.64-2.88-6.16C332,43.76,310.32,36,288,36c-3.04,0-6,0.16-8.96,0.48c-0.96,0.08-1.84,0.16-2.72,0.32
	c-2.16,0.24-4.24,0.56-6.32,0.96c-0.96,0.16-1.84,0.32-2.8,0.48c-2.4,0.56-4.72,1.12-7.04,1.84c-0.48,0.16-0.96,0.24-1.52,0.4
	c-2.72,0.88-5.44,1.92-8.08,3.04c-0.8,0.32-1.52,0.72-2.32,1.04c-1.92,0.88-3.76,1.84-5.6,2.8c-0.88,0.48-1.76,0.96-2.64,1.44
	c-1.84,1.12-3.68,2.24-5.44,3.44c-0.64,0.48-1.36,0.88-2,1.36c-0.16,0.08-0.4,0.24-0.56,0.32V20z M208.08,127.6
	c1.04-18.88,8.8-36.8,21.76-50.56C245.04,60.88,265.68,52,288,52c17.36,0,34.24,5.68,48,16v24h-16c-13.2,0-24,10.8-24,24v16
	c0,4.4,3.6,8,8,8h63.6c-0.64,6.88-2.24,13.6-4.64,20c-2.88,7.76-6.96,15.04-12.24,21.6C320.08,159.92,281.04,148,240,148
	c-10,0-20.08,0.72-29.92,2.16c-1.36-5.92-2.08-12-2.08-18.16L208.08,127.6z M355.92,405.12c-1.52,0.88-2.64,2.24-3.28,3.76
	L328,458.08l-13.52-26.96c-1.36-2.72-4.16-4.4-7.12-4.4c-0.72,0-1.44,0.08-2.16,0.32c-41.76,11.92-88.64,11.92-130.4,0
	c-3.68-1.04-7.6,0.64-9.28,4.08L152,458.08l-24.56-48.96c-0.64-1.68-1.76-3.04-3.28-4c-18.4-11.04-33.84-24.24-45.92-39.44
	c-0.56-0.72-1.2-1.28-2-1.68H16v-16c35.28,0,64-28.72,64-64H64c0,26.48-21.52,48-48,48V204h60.24c0.72-0.4,1.44-0.96,2-1.68
	c15.52-19.36,36.72-35.84,61.28-47.76c2.72-1.36,4.48-4.16,4.48-7.2v-36.08L170.64,138c2.08,2,5.04,2.8,7.76,2.08
	c4.72-1.28,9.28-2.4,13.68-3.28c0.08,0.32,0.16,0.56,0.16,0.88c0.24,3.68,0.64,7.36,1.28,10.96c0.08,0.64,0.24,1.28,0.4,1.92
	c0.16,0.88,0.32,1.68,0.48,2.56c-4.4,0.96-8.72,2.08-12.72,3.28l4.64,15.36c6-1.84,12.56-3.44,19.44-4.72
	c11.2-2,22.72-3.04,34.24-3.04c40.24,0,78.24,12.32,106.96,34.8c12.48,9.76,22.56,20.96,30.16,33.36l13.6-8.32
	c-7.12-11.76-16.48-22.56-27.52-32.24c0.08-0.08,0.16-0.16,0.16-0.24c0.56-0.64,1.04-1.36,1.52-2c1.36-1.76,7.76-11.84,8.96-14.24
	C410.96,203.68,432,242.88,432,284C432,332,404.24,376.16,355.92,405.12z"/>
<path d="M162.344,241.656c1.563,1.563,3.609,2.344,5.656,2.344s4.094-0.781,5.656-2.344l16-16l-11.313-11.313L168,224.688
	l-26.344-26.344c-3.125-3.125-8.188-3.125-11.313,0l-32,32l11.313,11.313L136,215.313L162.344,241.656z"/>
<rect x="32" y="220" width="16" height="80"/>
<rect x="388.001" y="243.055" transform="matrix(-0.8944 0.4472 -0.4472 -0.8944 862.8915 300.299)" width="16" height="17.888"/>
<path d="M152,292c-22.055,0-40,17.945-40,40s17.945,40,40,40s40-17.945,40-40S174.055,292,152,292z M152,356
	c-13.234,0-24-10.766-24-24s10.766-24,24-24s24,10.766,24,24S165.234,356,152,356z"/>
<g>
</g>
<g>
</g>
<g>
</g>
<g>
</g>
<g>
</g>
<g>
</g>
<g>
</g>
<g>
</g>
<g>
</g>
<g>
</g>
<g>
</g>
<g>
</g>
<g>
</g>
<g>
</g>
<g>
</g>
</svg>
