<?xml version="1.0" encoding="iso-8859-1"?>
<!-- Generator: Adobe Illustrator 19.0.0, SVG Export Plug-In . SVG Version: 6.00 Build 0)  -->
<svg version="1.1" id="Capa_1" xmlns="http://www.w3.org/2000/svg" xmlns:xlink="http://www.w3.org/1999/xlink" x="0px" y="0px"
	 viewBox="0 0 511.999 511.999" style="enable-background:new 0 0 511.999 511.999;" xml:space="preserve">
<path style="fill:#FEDB41;" d="M287.818,317.78c-4.798,4.798-10.496,8.396-16.795,10.496v17.695c0,8.396-6.597,14.995-14.995,14.995
	c-8.398,0-14.995-6.599-14.995-14.995v-17.695c-6.299-2.099-11.997-5.698-16.795-10.496c-5.998-5.998-5.998-15.295,0-21.294
	c5.998-5.698,15.295-5.698,21.294,0c2.698,2.7,6.597,4.199,10.496,4.199c3.899,0,7.798-1.5,10.496-4.199
	c5.998-5.698,5.998-15.295,0-20.993c-2.698-2.998-6.597-4.498-10.496-4.498c-11.997,0-23.394-4.799-31.79-13.196
	c-17.696-17.395-17.696-45.887,0-63.58c4.798-4.8,10.496-7.798,16.795-9.898v-18.294c0-8.398,6.597-14.995,14.995-14.995
	c8.398,0,14.995,6.597,14.995,14.995v18.294c6.299,2.099,11.997,5.097,16.795,9.898c5.998,5.998,5.998,15.295,0,21.292
	c-5.998,5.698-15.295,5.698-21.294,0c-2.698-2.698-6.597-4.198-10.496-4.198c-3.899,0-7.798,1.5-10.496,4.198
	c-3,2.7-4.5,6.599-4.5,10.498c0,8.396,6.597,14.995,14.995,14.995c11.997,0,23.394,4.798,31.79,13.196
	C305.512,271.593,305.512,300.085,287.818,317.78z"/>
<path style="fill:#32D736;" d="M509.548,234.405l-28.79,43.187l-28.792,63.28H404.58l-13.795-66.878l-26.392-39.588
	c-6.599-9.896,0.599-23.392,12.595-23.392h7.198c-9.898-28.191-29.39-52.484-54.583-68.68
	c-21.892-14.095-47.785-21.292-73.576-20.992c-9.897,0-19.495,0.899-29.39,2.998c-56.682,12.896-100.569,61.18-105.967,119.062
	c-0.601,7.798-7.198,13.496-14.995,13.496h-1.201l-59.981-1.799c-8.096-0.599-14.395-7.798-13.795-16.194
	c7.498-99.87,82.573-182.944,179.443-203.038c15.295-3.299,30.591-4.798,45.887-4.798c103.168,0.3,199.538,73.477,221.43,179.944
	h19.495c5.398,0,10.496,2.998,13.196,7.798C512.849,223.909,512.548,229.607,509.548,234.405z"/>
<g>
	<path style="fill:#FFCC33;" d="M266.524,215.51c-2.698-2.698-6.597-4.198-10.496-4.198v-60.281c8.398,0,14.995,6.597,14.995,14.995
		v18.294c6.299,2.099,11.997,5.097,16.795,9.898c5.998,5.998,5.998,15.295,0,21.292C281.819,221.209,272.522,221.209,266.524,215.51
		z"/>
	<path style="fill:#FFCC33;" d="M287.818,317.78c-4.798,4.798-10.496,8.396-16.795,10.496v17.695
		c0,8.396-6.597,14.995-14.995,14.995v-60.281c3.899,0,7.798-1.5,10.496-4.199c5.998-5.698,5.998-15.295,0-20.993
		c-2.698-2.998-6.597-4.498-10.496-4.498v-29.991c11.997,0,23.394,4.798,31.79,13.196
		C305.512,271.593,305.512,300.085,287.818,317.78z"/>
</g>
<path style="fill:#10BB67;" d="M509.548,234.405l-28.79,43.187l-28.792,63.28H404.58l-13.795-66.878l-26.392-39.588
	c-6.599-9.896,0.599-23.392,12.595-23.392h7.198c-9.898-28.191-29.39-52.484-54.583-68.68
	c-21.892-14.095-47.785-21.292-73.576-20.992V31.071c103.168,0.3,199.538,73.477,221.43,179.944h19.495
	c5.398,0,10.496,2.998,13.196,7.798C512.849,223.909,512.548,229.607,509.548,234.405z"/>
<path style="fill:#B758CE;" d="M480.758,277.592c-4.5,50.684-26.692,97.17-59.981,132.56
	c-42.887,45.585-102.969,70.778-163.849,70.778h-0.901c-110.666-0.3-201.037-79.776-221.43-179.944H15.103
	c-11.997,0-19.194-13.496-12.595-23.394l28.79-42.887l31.191-47.085c5.698-8.396,19.493-8.396,25.191,0l33.59,50.684l26.392,39.288
	c6.599,10.198-0.599,23.394-12.595,23.394h-7.198c15.596,44.385,54.382,77.975,101.768,87.572c8.997,1.799,17.696,2.4,26.392,2.4
	c8.997,0,17.396-0.601,26.092-2.4c0.3-0.3,0.601-0.3,0.901-0.3c28.79-5.698,54.983-20.993,73.877-41.687
	c17.993-20.093,30.291-44.986,33.889-72.576l33.59,50.384c5.998,8.698,19.193,8.698,25.191,0L480.758,277.592z"/>
<path style="fill:#AA3DC8;" d="M480.758,277.592c-4.5,50.684-26.692,97.17-59.981,132.56
	c-42.887,45.585-102.969,70.778-163.849,70.778h-0.901v-89.972c8.997,0,17.396-0.601,26.092-2.4c0.3-0.3,0.601-0.3,0.901-0.3
	c28.79-5.698,54.983-20.993,73.877-41.687c17.993-20.093,30.291-44.986,33.889-72.576l33.59,50.384
	c5.998,8.698,19.193,8.698,25.191,0L480.758,277.592z"/>
<g>
</g>
<g>
</g>
<g>
</g>
<g>
</g>
<g>
</g>
<g>
</g>
<g>
</g>
<g>
</g>
<g>
</g>
<g>
</g>
<g>
</g>
<g>
</g>
<g>
</g>
<g>
</g>
<g>
</g>
</svg>
