<?xml version="1.0" encoding="utf-8"?>
<!-- Generator: Adobe Illustrator 16.0.0, SVG Export Plug-In . SVG Version: 6.00 Build 0)  -->
<!DOCTYPE svg PUBLIC "-//W3C//DTD SVG 1.1//EN" "http://www.w3.org/Graphics/SVG/1.1/DTD/svg11.dtd">
<svg version="1.1" id="Capa_1" xmlns="http://www.w3.org/2000/svg" xmlns:xlink="http://www.w3.org/1999/xlink" x="0px" y="0px"
	 width="512px" height="512px" viewBox="0 0 512 512" enable-background="new 0 0 512 512" xml:space="preserve">
<g>
	<g>
		<path fill="#E1901B" d="M348.13,276.011c12.61,3.63,25.221,5.473,37.487,5.473c18.942,0,34.748-4.329,47.004-9.63
			c-11.815,43.255-40.199,117.891-96.741,126.296c-5.236,0.779-9.527,4.565-10.956,9.662l-12.358,44.2
			c-1.042,3.738-0.424,7.739,1.708,10.983c2.132,3.243,5.559,5.408,9.398,5.935c4.173,0.569,8.427,0.859,12.643,0.859
			c67.869,0,135.083-70.839,163.445-172.27c16.648-59.507,21.53-148.971-19.479-205.282c-22.949-31.51-56.43-48.336-99.513-50.017
			c-0.178-0.006-0.35-0.011-0.526-0.011c-53.159,0-100.297,35.801-114.637,87.053c-8.566,30.64-4.693,62.772,10.913,90.501
			C291.958,247.181,317.389,267.166,348.13,276.011z"/>
		<path fill="#E1901B" d="M15.371,219.759c15.44,27.423,40.87,47.407,71.612,56.253c12.61,3.63,25.22,5.473,37.481,5.473
			c18.942,0,34.753-4.329,47.009-9.63c-11.815,43.255-40.199,117.891-96.746,126.296c-5.236,0.779-9.522,4.565-10.956,9.662
			l-12.358,44.2c-1.042,3.738-0.424,7.739,1.708,10.983c2.127,3.243,5.553,5.408,9.398,5.935c4.168,0.569,8.421,0.859,12.643,0.859
			c67.869,0,135.083-70.839,163.45-172.27c16.644-59.507,21.526-148.971-19.489-205.293c-22.944-31.504-56.43-48.336-99.508-50.012
			c-0.178-0.005-0.35-0.011-0.532-0.011c-53.153,0-100.297,35.801-114.637,87.054C-4.109,159.897-0.231,192.036,15.371,219.759z"/>
	</g>
</g>
</svg>
